<?xml version="1.0" encoding="iso-8859-1"?>
<!-- Generator: Adobe Illustrator 19.0.0, SVG Export Plug-In . SVG Version: 6.00 Build 0)  -->
<svg version="1.1" id="Layer_1" xmlns="http://www.w3.org/2000/svg" xmlns:xlink="http://www.w3.org/1999/xlink" x="0px" y="0px"
	 viewBox="0 0 512 512" style="enable-background:new 0 0 512 512;" xml:space="preserve">
<path style="fill:#6F6F6F;" d="M437.02,74.98C388.667,26.628,324.381,0,256,0S123.333,26.628,74.98,74.98
	C26.628,123.333,0,187.62,0,256s26.628,132.667,74.98,181.02C123.333,485.372,187.619,512,256,512s132.667-26.628,181.02-74.98
	C485.372,388.667,512,324.38,512,256S485.372,123.333,437.02,74.98z M256,370.971c-63.396,0-114.971-51.575-114.971-114.971
	S192.604,141.029,256,141.029S370.971,192.604,370.971,256S319.396,370.971,256,370.971z"/>
<path style="fill:#444444;" d="M437.02,74.98C388.667,26.628,324.381,0,256,0v141.029c63.396,0,114.971,51.575,114.971,114.971
	S319.396,370.971,256,370.971V512c68.381,0,132.667-26.628,181.02-74.98C485.372,388.667,512,324.38,512,256
	S485.372,123.333,437.02,74.98z"/>
<path style="fill:#F1F1F1;" d="M256,124.334c-72.602,0-131.666,59.066-131.666,131.666S183.398,387.666,256,387.666
	S387.666,328.602,387.666,256S328.602,124.334,256,124.334z M256,287.349c-17.286,0-31.349-14.063-31.349-31.349
	s14.063-31.349,31.349-31.349s31.349,14.063,31.349,31.349S273.286,287.349,256,287.349z M288.402,199.987
	c-4.872-2.829-10.14-5.047-15.706-6.534V159.15c14.68,2.523,28.258,8.31,39.954,16.59L288.402,199.987z M239.304,193.454
	c-5.566,1.487-10.833,3.704-15.706,6.534l-24.249-24.249c11.697-8.28,25.274-14.067,39.954-16.59v34.305H239.304z M199.987,223.598
	c-2.829,4.872-5.047,10.14-6.534,15.706H159.15c2.523-14.68,8.31-28.258,16.59-39.954L199.987,223.598z M193.454,272.696
	c1.487,5.566,3.704,10.833,6.534,15.706l-24.248,24.248c-8.28-11.696-14.067-25.274-16.59-39.954H193.454z M223.598,312.013
	c4.872,2.829,10.14,5.047,15.706,6.534v34.304c-14.68-2.523-28.258-8.31-39.954-16.59L223.598,312.013z M272.696,318.546
	c5.566-1.487,10.833-3.704,15.706-6.534l24.249,24.249c-11.697,8.28-25.274,14.067-39.954,16.59v-34.305H272.696z M312.013,288.402
	c2.829-4.872,5.047-10.14,6.534-15.706h34.304c-2.523,14.68-8.31,28.258-16.59,39.954L312.013,288.402z M318.546,239.304
	c-1.487-5.566-3.704-10.833-6.534-15.706l24.248-24.248c8.28,11.696,14.067,25.274,16.59,39.954H318.546z"/>
<path style="fill:#D7D7D7;" d="M256,124.334v100.317c17.286,0,31.349,14.063,31.349,31.349S273.286,287.349,256,287.349v100.317
	c72.602,0,131.666-59.066,131.666-131.666S328.602,124.334,256,124.334z M352.85,239.304h-34.304
	c-1.487-5.566-3.704-10.833-6.534-15.706l24.248-24.248C344.54,211.046,350.327,224.624,352.85,239.304z M272.696,193.454V159.15
	c14.68,2.523,28.258,8.31,39.954,16.59l-24.249,24.249C283.529,197.158,278.262,194.941,272.696,193.454z M272.696,352.85v-34.304
	c5.566-1.487,10.833-3.704,15.706-6.534l24.249,24.249C300.954,344.54,287.376,350.327,272.696,352.85z M336.26,312.649
	l-24.248-24.248c2.829-4.872,5.047-10.14,6.534-15.706h34.304C350.327,287.376,344.54,300.954,336.26,312.649z"/>
<g>
</g>
<g>
</g>
<g>
</g>
<g>
</g>
<g>
</g>
<g>
</g>
<g>
</g>
<g>
</g>
<g>
</g>
<g>
</g>
<g>
</g>
<g>
</g>
<g>
</g>
<g>
</g>
<g>
</g>
</svg>
